name C:\Users\u0101727\Documents\MyRepositories\upper-imu-dc\Results\main_tracking\Case_17\kinematics.mot
datacolumns 10
datarows 28
range 3.00000000 3.27000000
endheader 
time	clav_prot	clav_elev	scapula_abduction	scapula_elevation	scapula_upward_rot	scapula_winging	plane_elv	shoulder_elv	axial_rot	
          3.00000000	        -22.30287600	          4.26534988	        -13.26032182	          1.83042929	         15.57269994	          3.05629590	        -17.44446219	          5.14547680	         46.26996653	
          3.01000000	        -22.41568901	          4.16748357	        -13.52964434	          1.77861329	         15.44840159	          3.10222484	        -17.17491147	          5.29077339	         45.64080899	
          3.02000000	        -22.47536417	          4.06598508	        -13.67586338	          1.73353851	         15.31678010	          3.14981649	        -16.89193764	          5.44909251	         45.03468613	
          3.03000000	        -22.39519228	          3.94595250	        -13.56956859	          1.68415398	         15.18043491	          3.19958707	        -16.59557588	          5.62028350	         44.45609437	
          3.04000000	        -22.41675045	          3.82829743	        -13.64638155	          1.63124752	         15.04110480	          3.25088288	        -16.28367733	          5.80462534	         43.90447521	
          3.05000000	        -22.47244035	          3.71024583	        -13.78358150	          1.57607149	         14.90148223	          3.30272278	        -15.96247388	          6.00233284	         43.36628747	
          3.06000000	        -22.36309427	          3.58008162	        -13.62286986	          1.52127163	         14.76338154	          3.35408344	        -15.64160394	          6.21455431	         42.82469527	
          3.07000000	        -22.20298692	          3.45180862	        -13.37297653	          1.47086191	         14.62553511	          3.40427616	        -15.32132010	          6.44531050	         42.24797481	
          3.08000000	        -22.06328963	          3.33177232	        -13.15862466	          1.42370895	         14.49406307	          3.45154235	        -15.00510018	          6.69093435	         41.63441826	
          3.09000000	        -21.94619893	          3.22084535	        -12.98098209	          1.37899716	         14.37399261	          3.49459019	        -14.69603286	          6.94857560	         40.98412764	
          3.10000000	        -21.85088909	          3.11996088	        -12.83677789	          1.33652246	         14.26891188	          3.53247614	        -14.39766590	          7.21642448	         40.29711422	
          3.11000000	        -21.77636824	          3.02979152	        -12.72321794	          1.29627790	         14.18097396	          3.56465342	        -14.11107951	          7.49357483	         39.57521029	
          3.12000000	        -21.72164092	          2.95060125	        -12.63809324	          1.25828214	         14.11108697	          3.59093409	        -13.83552098	          7.77987146	         38.82241320	
          3.13000000	        -21.68581314	          2.88217576	        -12.57981676	          1.22246768	         14.05911268	          3.61144530	        -13.56939251	          8.07585494	         38.04384513	
          3.14000000	        -21.66823222	          2.82384111	        -12.54752491	          1.18861838	         14.02412034	          3.62656356	        -13.31141305	          8.38266449	         37.24458443	
          3.15000000	        -21.66763364	          2.77453538	        -12.53959914	          1.15647626	         14.00437924	          3.63688812	        -13.06116676	          8.70213316	         36.42887825	
          3.16000000	        -21.68312314	          2.73298904	        -12.55514382	          1.12567035	         13.99791009	          3.64309716	        -12.82015375	          9.03630364	         35.59862658	
          3.17000000	        -21.71346630	          2.69787583	        -12.59279990	          1.09587909	         14.00246341	          3.64592264	        -12.59142687	          9.38736271	         34.75392301	
          3.18000000	        -21.75708396	          2.66798124	        -12.65069674	          1.06691073	         14.01569549	          3.64608778	        -12.37914645	          9.75734262	         33.89285303	
          3.19000000	        -21.81323056	          2.64239516	        -12.72833980	          1.03865734	         14.03562049	          3.64419666	        -12.18837694	         10.14754434	         33.01163337	
          3.20000000	        -21.88020371	          2.62047925	        -12.82378720	          1.01133711	         14.06001792	          3.64086170	        -12.02294211	         10.55888414	         32.10703744	
          3.21000000	        -21.95648415	          2.60185487	        -12.93549435	          0.98534088	         14.08671626	          3.63666225	        -11.88471939	         10.99154543	         31.17631591	
          3.22000000	        -22.04235472	          2.58636466	        -13.06505965	          0.96106093	         14.11376106	          3.63213917	        -11.77299740	         11.44480111	         30.21814652	
          3.23000000	        -22.13787070	          2.57376438	        -13.21401783	          0.93900219	         14.13858418	          3.62801090	        -11.68255546	         11.91779254	         29.23404333	
          3.24000000	        -22.24888233	          2.56400125	        -13.39408548	          0.91941198	         14.15881669	          3.62501066	        -11.60519138	         12.40903297	         28.22548391	
          3.25000000	        -22.38277525	          2.55726564	        -13.62065318	          0.90302796	         14.17059855	          3.62421808	        -11.53009596	         12.91813646	         27.19383504	
          3.26000000	        -22.59457263	          2.55799856	        -13.99618530	          0.89162637	         14.16747670	          3.62725555	        -11.44621862	         13.44712292	         26.13850988	
          3.27000000	        -22.46371750	          2.53142839	        -13.76439634	          0.88333786	         14.15273820	          3.63325683	        -11.35606253	         13.98972149	         25.08473985	
